# Made in Blockbench 4.12.6
mtllib orpheus-evil-smirking.mtl

o pyramid
v -0.536788218175523 1.534576022144496 -0.1875
v 0.22207594248221574 1.4742884975027533 0.5
v 0.22207594248221574 1.4742884975027533 -0.5
v -0.7220760452345935 0.838212037557372 0.5
v -0.7220760452345935 0.838212037557372 -0.5
v 0.24999977320703193 1.499999782072263 0.5
v 0.24999977320703193 1.499999782072263 -0.50625
v 0.3750001798894502 1.0000000078567557 0.5
v 0.3750001798894502 1.0000000078567557 -0.50625
v -0.7500000294441646 0.8124998825325619 0.5
v -0.7500000294441646 0.8124998825325619 -0.50625
v -0.6249999827597319 0.6874996833718494 0.5
v -0.6249999827597319 0.6874996833718494 -0.50625
v 0.31249979730560473 1.2500001509495233 0.5
v 0.31249979730560473 1.2500001509495233 -0.5
v 0.3750001798894502 1.0000000078567557 0.5
v 0.3750001798894502 1.0000000078567557 -0.5
v -0.6874997501169344 0.749999962194842 0.5
v -0.6874997501169344 0.749999962194842 -0.5
v -0.576250152927808 0.6249996912284822 0.5
v -0.576250152927808 0.6249996912284822 -0.5
v 0.3679591435695726 0.9984857010449473 0.5
v 0.3679591435695726 0.9984857010449473 -0.5
v 0.4332225589364178 0.5652630835053528 0.4375
v 0.4332225589364178 0.5652630835053528 -0.4375
v -0.6234855224631685 0.6804595175072723 0.5
v -0.6234855224631685 0.6804595175072723 -0.5
v -0.3707227553008138 0.3722368444039704 0.4375
v -0.3707227553008138 0.3722368444039704 -0.4375
v -1.6135555447327476e-7 0.5625002031986329 0.375
v -1.6135555447327476e-7 0.5625002031986329 -0.375
v -0.24999968922167887 0.3124999563450126 0.4375
v -0.24999968922167887 0.3124999563450126 -0.4375
v -0.37500035113275454 0.6250000197754998 0.4375
v -0.37500035113275454 0.6250000197754998 -0.4375
v -0.3125001210251888 0.12499963083758736 0.4375
v -0.3125001210251888 0.12499963083758736 -0.4375
v 0.3125000043230729 0.7500000177445058 0.375
v 0.3125000043230729 0.7500000177445058 -0.375
v 0.5624999462241338 -1.811909067228612e-9 0.5625
v 0.5624999462241338 -1.811909067228612e-9 -0.5625
v -0.06249982596037923 0.5624999469615002 0.375
v -0.06249982596037923 0.5624999469615002 -0.375
v -0.5625003663660963 9.56189447620659e-8 0.5625
v -0.5625003663660963 9.56189447620659e-8 -0.5625
vt 0.1328125 0.6328125
vt 0.2578125 0.6328125
vt 0.2578125 0.7734375
vt 0.1328125 0.7734375
vt 0.414161953125 0.8984375
vt 0.497941953125 0.8056694531249999
vt 0.542381015625 0.8984375
vt 0.265679296875 0.625
vt 0.265679296875 0.48269640625
vt 0.370062890625 0.5571564062500001
vt 0.45320734375 0.7265625
vt 0.55607 0.62822875
vt 0.55607 0.7264083593749999
vt 0 0.45680078125
vt 0.125 0.45680078125
vt 0.0390625 0.546875
vt 0.2734375 1
vt 0.1484375 1
vt 0.1484375 0.9375
vt 0.2734375 0.9375
vt 0.6875 0.890625
vt 0.6875 0.9140625
vt 0.5625 0.9140625
vt 0.5625 0.890625
vt 0 0.84375
vt 0 0.6953125
vt 0.125 0.6953125
vt 0.125 0.84375
vt 0 0.5546875
vt 0.125 0.5546875
vt 0.125 0.6875
vt 0 0.6875
vt 0.3046875 0.38646562500000003
vt 0.3671875 0.363933515625
vt 0.3671875 0.515625
vt 0.343314453125 0.5116009375
vt 0.643961015625 0.546875
vt 0.492269453125 0.546875
vt 0.514801640625 0.486520078125
vt 0.639936875 0.52514703125
vt 0.671875 0.8828125
vt 0.546875 0.8828125
vt 0.546875 0.8515625
vt 0.671875 0.8515625
vt 0.6875 0.921875
vt 0.6875 0.9453125
vt 0.5625 0.9453125
vt 0.5625 0.921875
vt 0.265625 0.7734375
vt 0.265625 0.6328125
vt 0.390625 0.6328125
vt 0.390625 0.7734375
vt 0.1328125 0.5
vt 0.2578125 0.5
vt 0.2578125 0.625
vt 0.1328125 0.625
vt 0 0.312545859375
vt 0.03125 0.30555859375000005
vt 0.03125 0.4453125
vt 0.01125078125 0.439862421875
vt 0.671073203125 0.84375
vt 0.531319375 0.84375
vt 0.538306640625 0.812305234375
vt 0.665623203125 0.823556015625
vt 0.6171875 0.4765625
vt 0.4921875 0.4765625
vt 0.5 0.421875
vt 0.609375 0.421875
vt 0.6484375 0.953125
vt 0.65625 1
vt 0.53125 1
vt 0.5390625 0.953125
vt 0.28125 1
vt 0.28125 0.8671875
vt 0.40625 0.8671875
vt 0.40625 1
vt 0.375 0.4453125
vt 0.484375 0.4453125
vt 0.484375 0.546875
vt 0.375 0.546875
vt 0.1328125 0.37058875
vt 0.1875 0.36181640625
vt 0.1875 0.49196632812499996
vt 0.14045265625 0.47364874999999995
vt 0.63807296875 0.79680609375
vt 0.507923125 0.79680609375
vt 0.516695390625 0.7421875
vt 0.61975546875 0.7498276562499999
vt 0.3828125 0.859183203125
vt 0.2890625 0.859183203125
vt 0.28125 0.814988671875
vt 0.390625 0.814988671875
vt 0.640625 0.5546875
vt 0.640625 0.6171875
vt 0.53125 0.6171875
vt 0.53125 0.5546875
vt 0.1953125 0.46875
vt 0.203125 0.421875
vt 0.296875 0.421875
vt 0.3046875 0.46875
vt 0.390625 0.814988671875
vt 0.28125 0.814988671875
vt 0.28125 0.790283203125
vt 0.390625 0.790283203125
vt 0.39724328125 0.426838671875
vt 0.42440671875 0.39111328125
vt 0.43798828125 0.437317421875
vt 0.37507484375 0.437317421875
vt 0.0859375 0.44523765625
vt 0.0390625 0.43165617187500005
vt 0.074787890625 0.40449265624999997
vt 0.0859375 0.38232421875
vt 0.5 0.65625
vt 0.40625 0.65625
vt 0.3828125 0.5546875
vt 0.5234375 0.5546875
vt 0 1
vt 0.0234375 0.905925
vt 0.1171875 0.905925
vt 0.140625 1
vt 0.0234375 0.905925
vt 0.0234375 0.8535171875
vt 0.1171875 0.8535171875
vt 0.1171875 0.905925
vt 0.1328125 0.78125
vt 0.2734375 0.78125
vt 0.2734375 0.921875
vt 0.1328125 0.921875
vt 0.398487421875 0.719515703125
vt 0.495067265625 0.750936328125
vt 0.47214953125 0.798068046875
vt 0.398487421875 0.859375
vt 0.4926315625 0.977082265625
vt 0.445499765625 1
vt 0.414079140625 0.90625
vt 0.5539384375 0.90625
vn 0.5587327160786925 -0.8293477871094413 0
vn 0.07919489913578952 0.9968591515108202 0
vn -0.4599985564233471 0.6827929954069663 0.5676222806687732
vn -0.3075397437264779 0.45649269958238253 -0.8348854539735623
vn -0.9663761837132815 0.25713240082057787 0
vn 0.9701422887092992 0.24253647077889695 0
vn -0.7071072124540376 -0.7071063499187945 0
vn -0.5665288425931523 0.8240419106514324 0
vn 0.29827523109759424 -0.9544799036719824 0
vn 0 0 1
vn 0 0 -1
vn 0.9701421834805501 0.2425368916919462 0
vn -0.7469989497568743 -0.6648252169270709 0
vn -0.4472138924809086 0.8944270425093789 0
vn 0.36674914536870545 -0.9303198720716032 0
vn 0 0 1
vn 0 0 -1
vn 0.988842391080908 0.1489655181624015 0
vn -0.7732429732446815 -0.6341098519402807 0
vn -0.30544116569772195 0.9522109505236835 0
vn 0.23346371332541022 -0.972365514896693 0
vn 0.043689726433158466 -0.1362024527375218 0.98971718165973
vn 0.04368972643315846 -0.13620245273752174 -0.98971718165973
vn 0.7071077979881425 -0.7071057643834906 0
vn -0.9922778323840813 -0.12403508922538581 0
vn 0.1643984369229167 0.9863940155623927 0
vn 0.9486828073140101 -0.3162292382225417 0
vn 0.17535758593382483 0.07014339156360617 0.9820028623560199
vn 0.17535758593382483 0.07014339156360619 -0.9820028623560199
vn 0.9486833225712208 0.31622769245470767 0
vn -0.7474088749501006 0.6643643380298382 0
vn -0.44721389248090865 0.8944270425093789 0
vn -8.660517913927633e-8 -0.9999999999999962 0
vn -0.10419438168245063 0.2083885903841999 0.9724801932294036
vn -0.10419438168245058 0.2083885903841999 -0.9724801932294036
usemtl m_7bfe8895-8c5f-174d-32bc-41c0e6eb9ab1
f 3/1/1 2/2/1 4/3/1 5/4/1
f 2/5/2 3/6/2 1/7/2
f 4/8/3 2/9/3 1/10/3
f 3/11/4 5/12/4 1/13/4
f 5/14/5 4/15/5 1/16/5
f 7/17/6 6/18/6 8/19/6 9/20/6
f 12/21/7 10/22/7 11/23/7 13/24/7
f 10/25/8 6/26/8 7/27/8 11/28/8
f 9/29/9 8/30/9 12/31/9 13/32/9
f 8/33/10 6/34/10 10/35/10 12/36/10
f 11/37/11 7/38/11 9/39/11 13/40/11
f 15/41/12 14/42/12 16/43/12 17/44/12
f 20/45/13 18/46/13 19/47/13 21/48/13
f 18/49/14 14/50/14 15/51/14 19/52/14
f 17/53/15 16/54/15 20/55/15 21/56/15
f 16/57/16 14/58/16 18/59/16 20/60/16
f 19/61/17 15/62/17 17/63/17 21/64/17
f 23/65/18 22/66/18 24/67/18 25/68/18
f 28/69/19 26/70/19 27/71/19 29/72/19
f 26/73/20 22/74/20 23/75/20 27/76/20
f 25/77/21 24/78/21 28/79/21 29/80/21
f 24/81/22 22/82/22 26/83/22 28/84/22
f 27/85/23 23/86/23 25/87/23 29/88/23
f 31/89/24 30/90/24 32/91/24 33/92/24
f 36/93/25 34/94/25 35/95/25 37/96/25
f 34/97/26 30/98/26 31/99/26 35/100/26
f 33/101/27 32/102/27 36/103/27 37/104/27
f 32/105/28 30/106/28 34/107/28 36/108/28
f 35/109/29 31/110/29 33/111/29 37/112/29
f 39/113/30 38/114/30 40/115/30 41/116/30
f 44/117/31 42/118/31 43/119/31 45/120/31
f 42/121/32 38/122/32 39/123/32 43/124/32
f 41/125/33 40/126/33 44/127/33 45/128/33
f 40/129/34 38/130/34 42/131/34 44/132/34
f 43/133/35 39/134/35 41/135/35 45/136/35